<mxfile host="app.diagrams.net" modified="2023-08-29T12:38:54.000Z" agent="Mozilla/5.0 (Windows NT 10.0; Win64; x64) AppleWebKit/537.36 (KHTML, like Gecko) Chrome/116.0.0.0 Safari/537.36" etag="IkAKO4dL6Rb9Og6nS5Am" version="21.6.9" type="github">
  <diagram name="Page-1" id="MvCU2Q1Wg6EuruinE6DE">
    <mxGraphModel dx="1434" dy="790" grid="1" gridSize="10" guides="1" tooltips="1" connect="1" arrows="1" fold="1" page="1" pageScale="1" pageWidth="850" pageHeight="1100" math="0" shadow="0">
      <root>
        <mxCell id="0" />
        <mxCell id="1" parent="0" />
        <mxCell id="pjwXyruQtFTs3RQAHMqx-1" value="" style="swimlane;startSize=0;" vertex="1" parent="1">
          <mxGeometry x="570" width="320" height="760" as="geometry" />
        </mxCell>
        <mxCell id="pjwXyruQtFTs3RQAHMqx-2" value="Certification system" style="text;html=1;strokeColor=none;fillColor=none;align=center;verticalAlign=middle;whiteSpace=wrap;rounded=0;fontSize=22;labelBackgroundColor=default;" vertex="1" parent="pjwXyruQtFTs3RQAHMqx-1">
          <mxGeometry x="75" y="10" width="75" height="40" as="geometry" />
        </mxCell>
        <mxCell id="pjwXyruQtFTs3RQAHMqx-11" value="Make requests" style="ellipse;whiteSpace=wrap;html=1;" vertex="1" parent="pjwXyruQtFTs3RQAHMqx-1">
          <mxGeometry x="30" y="70" width="120" height="80" as="geometry" />
        </mxCell>
        <mxCell id="pjwXyruQtFTs3RQAHMqx-12" value="Add questions" style="ellipse;whiteSpace=wrap;html=1;" vertex="1" parent="pjwXyruQtFTs3RQAHMqx-1">
          <mxGeometry x="70" y="420" width="120" height="80" as="geometry" />
        </mxCell>
        <mxCell id="pjwXyruQtFTs3RQAHMqx-13" value="certify questions" style="ellipse;whiteSpace=wrap;html=1;" vertex="1" parent="pjwXyruQtFTs3RQAHMqx-1">
          <mxGeometry x="45" y="570" width="120" height="80" as="geometry" />
        </mxCell>
        <mxCell id="pjwXyruQtFTs3RQAHMqx-14" value="Results" style="ellipse;whiteSpace=wrap;html=1;" vertex="1" parent="pjwXyruQtFTs3RQAHMqx-1">
          <mxGeometry x="30" y="240" width="120" height="80" as="geometry" />
        </mxCell>
        <mxCell id="pjwXyruQtFTs3RQAHMqx-18" value="&amp;lt;&amp;lt;include&amp;gt;&amp;gt;" style="html=1;verticalAlign=bottom;labelBackgroundColor=none;endArrow=open;endFill=0;dashed=1;rounded=0;" edge="1" parent="pjwXyruQtFTs3RQAHMqx-1" source="pjwXyruQtFTs3RQAHMqx-11" target="pjwXyruQtFTs3RQAHMqx-14">
          <mxGeometry x="0.1838" y="10" width="160" relative="1" as="geometry">
            <mxPoint x="10" y="150" as="sourcePoint" />
            <mxPoint x="-40" y="380" as="targetPoint" />
            <Array as="points">
              <mxPoint x="70" y="180" />
            </Array>
            <mxPoint x="-9" y="-6" as="offset" />
          </mxGeometry>
        </mxCell>
        <mxCell id="pjwXyruQtFTs3RQAHMqx-20" value="give hints" style="ellipse;whiteSpace=wrap;html=1;" vertex="1" parent="pjwXyruQtFTs3RQAHMqx-1">
          <mxGeometry x="180" y="260" width="120" height="80" as="geometry" />
        </mxCell>
        <mxCell id="pjwXyruQtFTs3RQAHMqx-21" value="&amp;lt;&amp;lt;extend&amp;gt;&amp;gt;" style="html=1;verticalAlign=bottom;labelBackgroundColor=none;endArrow=open;endFill=0;dashed=1;rounded=0;entryX=0.917;entryY=0.875;entryDx=0;entryDy=0;entryPerimeter=0;exitX=1;exitY=0;exitDx=0;exitDy=0;" edge="1" parent="pjwXyruQtFTs3RQAHMqx-1" source="pjwXyruQtFTs3RQAHMqx-20" target="pjwXyruQtFTs3RQAHMqx-11">
          <mxGeometry width="160" relative="1" as="geometry">
            <mxPoint x="150" y="130" as="sourcePoint" />
            <mxPoint x="310" y="130" as="targetPoint" />
          </mxGeometry>
        </mxCell>
        <mxCell id="pjwXyruQtFTs3RQAHMqx-23" value="&amp;lt;&amp;lt;include&amp;gt;&amp;gt;" style="html=1;verticalAlign=bottom;labelBackgroundColor=none;endArrow=open;endFill=0;dashed=1;rounded=0;entryX=0;entryY=1;entryDx=0;entryDy=0;" edge="1" parent="pjwXyruQtFTs3RQAHMqx-1" source="pjwXyruQtFTs3RQAHMqx-13" target="pjwXyruQtFTs3RQAHMqx-12">
          <mxGeometry width="160" relative="1" as="geometry">
            <mxPoint x="-140" y="300" as="sourcePoint" />
            <mxPoint x="20" y="300" as="targetPoint" />
          </mxGeometry>
        </mxCell>
        <mxCell id="pjwXyruQtFTs3RQAHMqx-4" value="User" style="shape=umlActor;verticalLabelPosition=bottom;verticalAlign=top;html=1;outlineConnect=0;" vertex="1" parent="1">
          <mxGeometry x="280" y="40" width="90" height="120" as="geometry" />
        </mxCell>
        <mxCell id="pjwXyruQtFTs3RQAHMqx-5" value="Tutor" style="shape=umlActor;verticalLabelPosition=bottom;verticalAlign=top;html=1;outlineConnect=0;" vertex="1" parent="1">
          <mxGeometry x="280" y="470" width="70" height="80" as="geometry" />
        </mxCell>
        <mxCell id="pjwXyruQtFTs3RQAHMqx-6" value="Examinator" style="shape=umlActor;verticalLabelPosition=bottom;verticalAlign=top;html=1;outlineConnect=0;" vertex="1" parent="1">
          <mxGeometry x="300" y="580" width="70" height="80" as="geometry" />
        </mxCell>
        <mxCell id="pjwXyruQtFTs3RQAHMqx-15" value="" style="endArrow=open;startArrow=none;endFill=0;startFill=0;endSize=8;html=1;verticalAlign=bottom;labelBackgroundColor=none;strokeWidth=1;rounded=0;" edge="1" parent="1" target="pjwXyruQtFTs3RQAHMqx-13">
          <mxGeometry width="160" relative="1" as="geometry">
            <mxPoint x="350" y="619.5" as="sourcePoint" />
            <mxPoint x="510" y="619.5" as="targetPoint" />
          </mxGeometry>
        </mxCell>
        <mxCell id="pjwXyruQtFTs3RQAHMqx-16" value="" style="endArrow=open;startArrow=none;endFill=0;startFill=0;endSize=8;html=1;verticalAlign=bottom;labelBackgroundColor=none;strokeWidth=1;rounded=0;" edge="1" parent="1" target="pjwXyruQtFTs3RQAHMqx-11">
          <mxGeometry width="160" relative="1" as="geometry">
            <mxPoint x="350" y="120" as="sourcePoint" />
            <mxPoint x="470" y="120" as="targetPoint" />
          </mxGeometry>
        </mxCell>
        <mxCell id="pjwXyruQtFTs3RQAHMqx-17" value="" style="endArrow=open;startArrow=none;endFill=0;startFill=0;endSize=8;html=1;verticalAlign=bottom;labelBackgroundColor=none;strokeWidth=1;rounded=0;entryX=0;entryY=0.5;entryDx=0;entryDy=0;exitX=1;exitY=0.3333333333333333;exitDx=0;exitDy=0;exitPerimeter=0;" edge="1" parent="1" source="pjwXyruQtFTs3RQAHMqx-5" target="pjwXyruQtFTs3RQAHMqx-12">
          <mxGeometry width="160" relative="1" as="geometry">
            <mxPoint x="340" y="290" as="sourcePoint" />
            <mxPoint x="500" y="290" as="targetPoint" />
          </mxGeometry>
        </mxCell>
      </root>
    </mxGraphModel>
  </diagram>
</mxfile>
